<svg xmlns="http://www.w3.org/2000/svg" width="1600" height="900" viewBox="0 0 1600 900">
  <rect width="1600" height="900" fill="#0a0f14"/>
  <rect x="72" y="72" width="1456" height="756" rx="28" fill="#101821" stroke="#2a3948" stroke-width="4"/>
  <text x="108" y="170" fill="#f4f7fb" font-family="Menlo, Monaco, Consolas, monospace" font-size="74">Yield Brain</text>
  <text x="110" y="222" fill="#8db4d8" font-family="Menlo, Monaco, Consolas, monospace" font-size="24">Bankr-native autonomous treasury brain for bounded agent operating power</text>

  <rect x="110" y="292" width="410" height="340" rx="22" fill="#0d141b" stroke="#2b4157" stroke-width="3"/>
  <text x="140" y="350" fill="#8db4d8" font-family="Menlo, Monaco, Consolas, monospace" font-size="28">Treasury Sources</text>
  <rect x="140" y="388" width="350" height="54" rx="12" fill="#142231"/>
  <text x="164" y="423" fill="#f4f7fb" font-family="Menlo, Monaco, Consolas, monospace" font-size="24">1. protocol_fees</text>
  <rect x="140" y="458" width="350" height="54" rx="12" fill="#142231"/>
  <text x="164" y="493" fill="#f4f7fb" font-family="Menlo, Monaco, Consolas, monospace" font-size="24">2. art_surplus</text>
  <rect x="140" y="528" width="350" height="54" rx="12" fill="#142231"/>
  <text x="164" y="563" fill="#f4f7fb" font-family="Menlo, Monaco, Consolas, monospace" font-size="24">3. wsteth_core_yield</text>

  <rect x="594" y="252" width="420" height="420" rx="30" fill="#0d141b" stroke="#3f6f9e" stroke-width="4"/>
  <text x="648" y="334" fill="#f4f7fb" font-family="Menlo, Monaco, Consolas, monospace" font-size="50">YIELD</text>
  <text x="650" y="394" fill="#f4f7fb" font-family="Menlo, Monaco, Consolas, monospace" font-size="50">BRAIN</text>
  <text x="648" y="460" fill="#7cd4b4" font-family="Menlo, Monaco, Consolas, monospace" font-size="24">shadow / live</text>
  <text x="648" y="498" fill="#7cd4b4" font-family="Menlo, Monaco, Consolas, monospace" font-size="24">pause switch</text>
  <text x="648" y="536" fill="#7cd4b4" font-family="Menlo, Monaco, Consolas, monospace" font-size="24">wallet snapshots</text>
  <text x="648" y="574" fill="#7cd4b4" font-family="Menlo, Monaco, Consolas, monospace" font-size="24">decision receipts</text>

  <rect x="1088" y="292" width="402" height="340" rx="22" fill="#0d141b" stroke="#2b4157" stroke-width="3"/>
  <text x="1118" y="350" fill="#8db4d8" font-family="Menlo, Monaco, Consolas, monospace" font-size="28">Task Outcomes</text>
  <rect x="1118" y="388" width="342" height="60" rx="14" fill="#143122"/>
  <text x="1150" y="427" fill="#c8f5df" font-family="Menlo, Monaco, Consolas, monospace" font-size="28">execute</text>
  <rect x="1118" y="470" width="342" height="60" rx="14" fill="#302414"/>
  <text x="1150" y="509" fill="#ffe1ad" font-family="Menlo, Monaco, Consolas, monospace" font-size="28">defer</text>
  <rect x="1118" y="552" width="342" height="60" rx="14" fill="#34161a"/>
  <text x="1150" y="591" fill="#ffc2cc" font-family="Menlo, Monaco, Consolas, monospace" font-size="28">reject</text>

  <path d="M520 462 C560 462 560 462 594 462" fill="none" stroke="#3f6f9e" stroke-width="5"/>
  <path d="M1014 462 C1054 462 1054 462 1088 462" fill="none" stroke="#3f6f9e" stroke-width="5"/>

  <text x="110" y="748" fill="#8db4d8" font-family="Menlo, Monaco, Consolas, monospace" font-size="22">Principal stays protected. Yield becomes bounded operating power.</text>
</svg>
