<svg xmlns="http://www.w3.org/2000/svg" width="1200" height="1200" viewBox="0 0 1200 1200">
  <rect width="1200" height="1200" fill="#0a0f14"/>
  <text x="74" y="110" fill="#f4f7fb" font-family="Menlo, Monaco, Consolas, monospace" font-size="64">Yield Brain</text>
  <text x="76" y="154" fill="#8db4d8" font-family="Menlo, Monaco, Consolas, monospace" font-size="24">economic judgment layer inside aaigotchi</text>

  <rect x="80" y="230" width="320" height="150" rx="18" fill="#142231"/>
  <text x="110" y="286" fill="#f4f7fb" font-family="Menlo, Monaco, Consolas, monospace" font-size="26">protocol_fees</text>
  <text x="110" y="326" fill="#8db4d8" font-family="Menlo, Monaco, Consolas, monospace" font-size="20">first spend priority</text>

  <rect x="80" y="418" width="320" height="150" rx="18" fill="#142231"/>
  <text x="110" y="474" fill="#f4f7fb" font-family="Menlo, Monaco, Consolas, monospace" font-size="26">art_surplus</text>
  <text x="110" y="514" fill="#8db4d8" font-family="Menlo, Monaco, Consolas, monospace" font-size="20">25% artist-net routed into ops</text>

  <rect x="80" y="606" width="320" height="150" rx="18" fill="#142231"/>
  <text x="110" y="662" fill="#f4f7fb" font-family="Menlo, Monaco, Consolas, monospace" font-size="26">wsteth_core_yield</text>
  <text x="110" y="702" fill="#8db4d8" font-family="Menlo, Monaco, Consolas, monospace" font-size="20">yield only, principal protected</text>

  <rect x="470" y="308" width="280" height="370" rx="28" fill="#0d141b" stroke="#3f6f9e" stroke-width="4"/>
  <text x="520" y="398" fill="#f4f7fb" font-family="Menlo, Monaco, Consolas, monospace" font-size="42">BRAIN</text>
  <text x="510" y="468" fill="#7cd4b4" font-family="Menlo, Monaco, Consolas, monospace" font-size="22">mode control</text>
  <text x="510" y="506" fill="#7cd4b4" font-family="Menlo, Monaco, Consolas, monospace" font-size="22">pause switch</text>
  <text x="510" y="544" fill="#7cd4b4" font-family="Menlo, Monaco, Consolas, monospace" font-size="22">wallet reader</text>
  <text x="510" y="582" fill="#7cd4b4" font-family="Menlo, Monaco, Consolas, monospace" font-size="22">policy validator</text>
  <text x="510" y="620" fill="#7cd4b4" font-family="Menlo, Monaco, Consolas, monospace" font-size="22">receipts</text>

  <rect x="828" y="260" width="292" height="116" rx="18" fill="#143122"/>
  <text x="874" y="332" fill="#c8f5df" font-family="Menlo, Monaco, Consolas, monospace" font-size="32">execute</text>

  <rect x="828" y="432" width="292" height="116" rx="18" fill="#302414"/>
  <text x="892" y="504" fill="#ffe1ad" font-family="Menlo, Monaco, Consolas, monospace" font-size="32">defer</text>

  <rect x="828" y="604" width="292" height="116" rx="18" fill="#34161a"/>
  <text x="884" y="676" fill="#ffc2cc" font-family="Menlo, Monaco, Consolas, monospace" font-size="32">reject</text>

  <path d="M400 305 C430 305 440 330 470 360" fill="none" stroke="#3f6f9e" stroke-width="5"/>
  <path d="M400 493 C430 493 440 493 470 493" fill="none" stroke="#3f6f9e" stroke-width="5"/>
  <path d="M400 681 C430 681 440 656 470 626" fill="none" stroke="#3f6f9e" stroke-width="5"/>
  <path d="M750 493 C780 493 798 493 828 493" fill="none" stroke="#3f6f9e" stroke-width="5"/>

  <text x="78" y="1040" fill="#8db4d8" font-family="Menlo, Monaco, Consolas, monospace" font-size="22">Tracks: Bankr LLM Gateway Use • stETH Agent Treasury • Synthesis Open Track</text>
</svg>
